# xmcd
# 
# Track frame offsets:
#     150
#     24347
#     51822
#     75460
#     113330
#     140450
#     161880
#     192340
#     220065
#     236945
# 
# Disc length: 3546
# 
# Revision: 7
# Processed by: cddbd v1.5.2PL0 Copyright (c) Steve Scherf et al.
# Submitted via: BonkEnc v1.0.5
# 
DISCID=800dd80a
DTITLE=Bill Evans - At The Montreux Jazz Festival
DYEAR=1968
DGENRE=Jazz
TTITLE0=One For Helen
TTITLE1=A Sleeping Bee
TTITLE2=Mother Of Earl
TTITLE3=Nardis
TTITLE4=I Loves You Porgy
TTITLE5=The Touch Of Your Lips
TTITLE6=Embraceable You
TTITLE7=Someday My Prince Will Come
TTITLE8=Walkin'  Up
TTITLE9=Quiet Now
EXTD=(P)1968 YEAR: 1968
EXTT0=
EXTT1=
EXTT2=
EXTT3=
EXTT4=
EXTT5=
EXTT6=
EXTT7=
EXTT8=
EXTT9=
PLAYORDER=
